/* XPM */
static char *_0424adff4bb4c40abc3435ebd17d0048tVHtyA4sEQaOuRl[] = {
/* columns rows colors chars-per-pixel */
"64 64 190 2 ",
"   c #2F3439",
".  c #32373E",
"X  c #41473E",
"o  c #454B3C",
"O  c #3A3F45",
"+  c #3B4147",
"@  c #3E444A",
"#  c #454B43",
"$  c #41464C",
"%  c #42484F",
"&  c #4F554E",
"*  c #4E5545",
"=  c #50554F",
"-  c #464C53",
";  c #484F56",
":  c #484F58",
">  c #4D5354",
",  c #4D545C",
"<  c #535A55",
"1  c #51575D",
"2  c #545B5C",
"3  c #585F5D",
"4  c #59615E",
"5  c #4F5760",
"6  c #4B516D",
"7  c #505760",
"8  c #535B63",
"9  c #585E65",
"0  c #565E69",
"q  c #595F68",
"w  c #4D5472",
"e  c #525976",
"r  c #575F7B",
"t  c #464C6A",
"y  c #5C6364",
"u  c #5B636C",
"i  c #57606A",
"p  c #5E6671",
"a  c #5F6872",
"s  c #5C657B",
"d  c #60676F",
"f  c #636B6E",
"g  c #6C756D",
"h  c #6E786E",
"j  c #636B74",
"k  c #646D7A",
"l  c #606770",
"z  c #677076",
"x  c #6C7671",
"c  c #6F7970",
"v  c #67717C",
"b  c #69737C",
"n  c #717B73",
"m  c #737D7C",
"M  c #77817A",
"N  c #363CB4",
"B  c #393FB3",
"V  c #393EBA",
"C  c #3D44AA",
"Z  c #3C43B3",
"A  c #3D43BC",
"S  c #4C538B",
"D  c #555D8C",
"F  c #545B86",
"G  c #464D93",
"H  c #444A99",
"J  c #4A5195",
"K  c #4D549A",
"L  c #50579A",
"P  c #525A9C",
"I  c #505792",
"U  c #5C6483",
"Y  c #5A628F",
"T  c #5F6886",
"R  c #596190",
"E  c #5C649C",
"W  c #5C6595",
"Q  c #636C85",
"!  c #626B8B",
"~  c #6B7682",
"^  c #6E7984",
"/  c #6E7988",
"(  c #697386",
")  c #717B85",
"_  c #737D8A",
"`  c #626B9A",
"'  c #4349A9",
"]  c #444AA2",
"[  c #4B52A4",
"{  c #4E56AD",
"}  c #535BA3",
"|  c #535AAA",
" . c #4047BD",
".. c #4349BD",
"X. c #474FB1",
"o. c #4E56B3",
"O. c #535BBC",
"+. c #5158B0",
"@. c #5861A6",
"#. c #606AA9",
"$. c #6973A2",
"%. c #373DCA",
"&. c #2E34DE",
"*. c #383FD5",
"=. c #3136DC",
"-. c #3339DE",
";. c #343AD5",
":. c #292FEC",
">. c #282DEB",
",. c #2D33EB",
"<. c #2C32E7",
"1. c #3036E2",
"2. c #3339E2",
"3. c #272CF5",
"4. c #282EF4",
"5. c #2127FF",
"6. c #252BFE",
"7. c #282FFF",
"8. c #2C32F4",
"9. c #2B32FF",
"0. c #3B41C1",
"q. c #3F46CD",
"w. c #3C43D5",
"e. c #3C43DB",
"r. c #464DC3",
"t. c #484FC3",
"y. c #4148C5",
"u. c #4148D8",
"i. c #4C54CA",
"p. c #76818D",
"a. c #7A848E",
"s. c #768292",
"d. c #7A8693",
"f. c #7E8995",
"g. c #7D8A9A",
"h. c #7A8799",
"j. c #808B96",
"k. c #828E9B",
"l. c #85919E",
"z. c #89939E",
"x. c #818EA0",
"c. c #8693A2",
"v. c #8A96A3",
"b. c #8D99A5",
"n. c #8696A8",
"m. c #8997A9",
"M. c #8D9BAD",
"N. c #8D9BAB",
"B. c #919BA6",
"V. c #919CAB",
"C. c #919CA9",
"Z. c #929DAD",
"A. c #929EAB",
"S. c #8E9EB1",
"D. c #919FB1",
"F. c #919FB1",
"G. c #95A1AE",
"H. c #99A3AF",
"J. c #92A1B3",
"K. c #92A0B2",
"L. c #92A1B5",
"P. c #95A3B5",
"I. c #94A1B4",
"U. c #96A4B6",
"Y. c #95A3B3",
"T. c #98A6B7",
"R. c #99A6B3",
"E. c #9CA9B6",
"W. c #96A5B8",
"Q. c #96A6B8",
"!. c #99A7B9",
"~. c #98A7B9",
"^. c #9DAABB",
"/. c #9DABBB",
"(. c #9FB0BF",
"). c #A0ACB7",
"_. c #A1AEBC",
"`. c #A3B1BE",
"'. c #9FAEC0",
"]. c #9FB0C0",
"[. c #A0AFC0",
"{. c #A5B4C3",
"}. c #A8B7C6",
"|. c #AAB8C7",
" X c #A9B7C8",
".X c #ACBBCA",
"XX c #B0BECE",
"oX c #B2C0CF",
"OX c #B4C2D1",
"+X c #B8C6D5",
/* pixels */
"b.b.v.N.m.m.v.m.v.v.v.M.V.N.b.N.m.Z.G.N.z.j.N.G.b.v.N.v.n.m.V.m.v.m.N.N.b.N.V.V.Z.v.d.m.Z.C.Z.C.m.b.V.C.Z.Z.Z.Z.D.Z.Z.Z.Z.Z.Z.v.",
"v.I.D.U.L.S.n.S.D.U.I.I.U.D.D.U.L.L.L.T.k.h.P.L.P.Y.U.S.m.S.M.M.M.Y.Y.Y.Y.S.Y.I.W.c._ Z.T.T.T.T.D.U.U.T._.[._._._.).T.D.T._.Z.k.",
"f.Q ^ ( Q v k / / _ ^ / / / ^ ~ / ( ( ( _ _ Q ~ ~ ~ ( / p.v ( ( Q b / p.b ( ^ ( ~ _ s.~ ~ ^ ^ ^ ^ _ / _ d._ _ _ j._ _ / ^ ) ) z.",
"l.g.k.x.g.h.h.h._ ~ ( v / g.h.s.h.h.h.g.g.s.s.v.x.k.c.g.g.d.l.g.l.h.g.n.c.c.c.c.x.k.g.a.x.c.x.x.k.x.h._ _ _ _ k.Z.c.v.c.c.c.x.C.",
"z.N.W.W.L.S.M.c.:       O m.h.s.s.g.g.g.k.s.n.~.I.L.W.n.g.m.M.g.c.I.M.Y.L.W.W.L.M.m.h.k.W.~.P.W.D.V._ O , : $ v _.D._.^.[.^.Z.V.",
"v.m.I.W.W.W.m.g.0 5 5 5 0 D.g.s.g.g.g.g.k.s.c.Y.M.M.L.n.h.n.L.M.n.m.m.m.D.I.L.I.n.c.d.k.L.I.P.].T.k._ k h._ / j.D.D.[.D.D.D.M.v.",
"z.N.I.L.Q.!.m.h.i 8 5 5 p M.m.M.S.M.S.S.c.s.a.f.g.M.S.n.g.n.M.L.S.S.n.c.M.S.Y.c.p.g.h.g.I.M.W./.D.c.d._ h.k.d.k.E.T.[.D.D.!.M.z.",
"l.v.L.L.W.W.S.n.s 8 8 8 u m.n.L.L.S.I.S.c.s.v.S.g.g.n.M.M.M.W.L.L.L.M.M.Y.m.d.g.m.m.h.l.~.S.!./.T.k.j._ x.x.k.c.H.T.[.[.D.D.V.V.",
"n.g.S.L.L.P.M.v.p 8 0 0 i n.M.L.W.!.'.I.n.s.l.S.I.S.d.g.S.N.L.L.I.L.S.G.h.l.S.Q.S.n.d.l.~.K.(.].D.x.j.k.V.b.l.l.D.^.[.[.M.D.D.Z.",
"c.n.L.Q.~.L.m.m.p 0 u 0 u n.n.L.W././.I.c.h.h.S.W.E.}.N.z.N.L.P.M.L.S.m.S.!.Q.Q.L.N.p.v.L.S././.!.x.j.j.B.v.l.l.Z._.[.[.Z.D.Z.D.",
"v.M./././.~.M.N.a u u 0 p n.c.S.W./.'.P.c.h.f.S.W.!.{.R.z.l.n.z.c.c.z.G.~.L.L.I.Q.N.s.g.M.m.!./.T.l.j.j.V.B.c.l.D._.[.[.D.D.Z.Z.",
"l.N.!./.'./.G.m.v u u 0 p n.c.S./././.L.m.f.f.S.W.!.(.N.n.a , 5 5 : l.P.~.L.L././.Y.h.g.S.Q.'./.D.c.j.j.v.v.z.z.R.^.[.).!.Z.Z.).",
"l.N.Q././.!.I.m.a 0 u u j R.N.W.Q./.'.W.N.h.g.R.'.].{.S.v.u u a j 8 z.Q.E.~.~././.N.f.g.Y.]././.!.c.j.d.c.c.k.c.D.^._.[._.D.M.).",
"v.n.!.E.W./.L.G.j 0 u u v E.Y././././.~.V.f.g.T.'.!./.M.v.^ g.z.l.s.N.P./././.`./.b.d.l.Y.]./.}.).v.k.d.k.k.j.l.Y._.[.[.[.M.Z.Z.",
"v.G.{./.'./.Y.G.j 5 5 5 u R.G./.'././.E.G.k.k.N.V.G.M.v.v.b p.d.s.~ N.R./.].{.(.~.A.f.g.Q.{.(.}._.b.j.~ d.d._ j.R.T._.T.).).R.Z.",
"l.S.E./.E.E.Z.N.p.j j p ^ R.N.P.E.E.~.G.V.l.f.p.^ / / p.m.f.l.g.l.l.G.V.P.E.P.T.Y.m.l.d.l.l.h.p._ l.c.j.c.z.k.C.Z.b ~ ~ d.l.Z.).",
"G.|.oXoXoXoX|..X+XOXoXoX.X.X|.oX.XoX.X|.G.l.}..XoXoXoXoX|.oXOXOXoXoX|..XoX.X.X.X|.R.d.E.{.`.}.|.XX.X.XXXXX.XXXXXXX.X.X}.{.{._.Z.",
"v.f.k.l.z.k.j.z.z.z.l.l.l.l.k.f.f.f.l.f.d.j.f.f.g.g.f.f.l.f.l.l.l.l.l.l.d.f.g.f.f.f.f.f.f.f.f.l.z.z.l.l.c.v.b.z.z.k.k.j.j.j.j.B.",
"z.a.j.l.v.z.l.z.a , 5 2 5 z.g.l.z.c.v.f.v.l.a.l.g.b.z.f.z.a 2 2 1 , f.v.l.l.v.l.k.l.z.d.v.z.z.v.z.B.) - - > - b Z.z.v.z.z.k.j.H.",
"A.G.B.E.|.|._.R.i i u i i R./.{.{.|.{.(.G.v.b.b.Y.}.}.(.G.u i p u 7 z./.{.}.{.].(.R.l.b.{.}.|.|.}.).a.+ - $ O b }.`.}.}.{.}.Z.H.",
"B.B.l.H.}.|._.H.p.f.g.g.f.E.E.`.}.{.}.(.G.z.G.N.R.}.}.(.A.p.g.c.c.a.G./.`.{.}.(./.G.l.v.`.`.}.{.).Z.j.k b b k k.`.T.[.{.{._.Z.Z.",
"B.).`.|.|.|.`.H.a.l.v.z.f.E.E.|.{.{.`./.G.l.G.{.`.}.}./.G.p.g.z.v.k.H.`.|.|.}.{.`.Y.l.z.`.).).).).Z.l.k b z l j.).^.{.[.[._.B.Z.",
"G._..X.XXXoX}.H.a.z.G.z.k.(.E.`.{.{.}.(.G.l.G.{.}.{.`.(.G.p.z.b.v.l.R.`.{..X|.|.{.R.z.l.`.|.`.).{.A.z.z b b z j.T.). X{.{._.b.Z.",
"G.).|.`.|.|.`.).f.z.G.z.l.).E.`.{.{.(./.G.l.G.{.`.|.|.(.H.p.g.b.v.l.R.`.|..X|.|.{.R.l.l.`.oX|.oX`.C.l.z ~ b z j.E.E.{. X X).v.).",
"G.R.`.`.`.{.E.R.f.z.H.G.z.`.E.`.|.}.}.E.R.B.G.}.{.}.}.(.H.p.g.z.z.f.E.`.|..X}.}..XE.z.z.`.oXoXoX`.b.j.v v v v j.^.E.{.{.}.(.m.E.",
"B.).|..X|.|.E.H.j.B.G.G.z.`.).oXoX.XoXR.R.B.G.{.{.|.{.(.G.p.k.z.v.j.E.`.|..X|.}.|.E.z.z.`.oXoXOX}.b.f.j z j z j.E.T./.{. X/.v.).",
"G.R.|.|.`.oXE.H.f.B.z.B.l.`.R.oXoX.X.XR.R.B.G.{.|.{.{.(.H.p.l.z.v.l.E.}.}..X.X}.}.E.b.l.`.oXoXoX}.v.l.p j j z k./.E.{.}.|.`.v.).",
"B.R.}.}.|..XE.R.f.z.G.b.l.E.E.oX|.{.|.R.R.B.G.|.{.|.{.(.G.p.l.z.z.z.).`..X.X.X}.`.E.B.l.`.oXoXoX}.b.j.u j u u f.E.`..X|.|.`.v.).",
"z.H.{.{.{.oXE.R.a.j.z.z.f./.E.|.|.|..XR.R.B.G.{.|.|.|.`.H.a.z.G.z.k.H.`.}..X.X`.`.Q.z.l.`..X{.|.`.G.z.f j f i f.E.{.oX|.|.`.m.R.",
"z.R.{.{.{.{.R.H.a.k.z.g.f./.R.oX.X|.{.R.R.b.H.{.|.{.{.`.R.a.z.G.b.f.R.`.`.|.}.).G.R.l.l.(. X|.|.`.G.z.f z f u a.E.|.OX|.{./.B.R.",
"v.E.`.|..X(.b.G.a.f.k.f.a.E.H.(..X.X}.G.E.B.G.|.|.{.|.(.R.a.z.z.z.f.G.E.`.{.|.H.G.H.z.l.`..XXXoX`.G.l.y p u 2 a.E.`.oX{.{.`.b.R.",
"B.z.z.H.S.l.l.G.a.f.l.f.a.(.z.z.G.R.z.z.E.b.B.`.{.{.{.`.G.j.z.z.l.j.R.G.b.E.{.`.`.E.B.l.G.G.H.R.B.v.v.u u u i f.E.l.z.G.H.v.B.E.",
"b.A.G.R.R.G.G.G.E.`.`.(.E.E.A.G.H.E.G.G.H.B.A.E.E.E.E.R.H.R.`.`.).).E.E.B.E./.E.R.H.b.v.G.z.z.G.z.G.R.).E.E.E.R.U.c.g.b.z.n.A.E.",
"G.G.H.G.G.H.R.S.G.H.E.R.G.A.G.G.G.H.G.B.l.b.G.S.G.G.G.G.H.H.H.H.H.R.G.H.G.G.G.G.G.l.l.B.R.R.G.G.G.G.H.R.Y.G.H.A.b.b.z.n.N.G.z.b.",
"l.m m ^ p.p.M p.z z v j z a.p.b p.M p.b k.b.m ^ p.) ) ) a.b b j b z a.f.b p.M ^ m f.b.p.b b ) p.) a.) b z v f b s.v v b ^ M p.B.",
"v.E.}.(.(./.G.Y.i ; 1 , , G.R.|.oX].E.G.G.z.G.].`.{.|.(.E.u @ $ @ @ z.`.`.|.{.{.`.E.z.z.E.(..XoX}.E.f.& 1 2 , p.(.E.(.(.{.(.G.A.",
"b.E.].{./.Y.g.G.b p.s.f.^ G.E.{.{.].c.b.G.c.H.{.`.{.|.(.H.b j j a i z.`.{.{.|.{.`.R.b.z.b.H..XoX}.E.d.b a.s.p.k.E.Q.].(.].(.S.A.",
"B.R.].{.}./.G.G.p.f.c.c.f.Q.E.{.(./.(.~.A.l.G.}.|.|.|.`.G.p._ ) m z b.`.{.|.{.|.`.E.G.b.{.{..XoX|.R.l.p.g.h.l.b.R.(.{.(.].(.G.c.",
"b.E.{.{.}.}./.A.p.f.v.v.j.E.R.(./.L.l.c.G.l.G.|.{.|.|.(.H._ b _ ~ a b.`.{.|.{.|.{.E.b.z.b.R.oX.X|.).z.p.g.g.z.v.E.~.{.(.{.].A.A.",
"b.~.{.|.}.].G.v.p.f.B.v.f.E.Y.}.]./.b.G.R.z.G.|.{.{.{.`.H.) b ) / z b.(.{.|.].|.{.E.B.b.E.`..X.X`.E.l.p.l.c.z.b.U.Q.].].{.].G.G.",
"B./.`.(.(.`.R.A.p.d.z.c.h.E.E.|.{.].{.`.H.l.b.{.{./.}.`.R.v v ^ ~ z b.(.{.].].{.{.E.b.b..X.X|.{.(.G.f.p.c.v.z.v.n.G.(.}.oXoXE.G.",
"b.E.(.(.{.(.E.R.f.g.v.g.f.`./.{.]..X{.(.G.l.c.(.`./.]./.E.~ ~ b b z b.(.{.{.(.]./.E.B.V.|.|.|.|.(.Q.l.d.g.l.z.b.Q.R.(.(.}.|.(.H.",
"b.`.`./.`.{.E.p.^ v.m.z.s.j.E.`.(.(.{.Q.N.z.G.}.}.}.}._.H.b v v j j v.`.{.{.}.|.`.R.v.V.`.`./.}.`.b.v s.g.g.b.k.z.`.`.E.E.`.`.H.",
"b.(.|.oXE.f., , / b.c.z.g.a , m G.(.(.S.n.g.A.oX|..XoX_.G.b p p a j z./.oX.X.XOX`.G.z.v.(././.v.j ; i d.h.g.b.l.u a z.(.E.(.E.G.",
"G.`.E.a.i - 8 s.g.m.b.m.c.f.v 1 , ^ A.E.G.l.A.oX X X.XT.G.b l l k a z.`.}.}.}.|.`.G.z.B.`.l.j ; - v d.c.c.b.N.l.f.u , p z.R.R.G.",
"G.a.; + > j p.s._ d.d.d.d.d.p.a.v ; @ v H.g.v.|. X{.}.U.V.b s k k p v./.{.`.{.}.E.G.z.l.u - 5 b a.s.f.c.m.b.v.l.k.l.f.z 2 z b.A.",
"G.y + u v a z p.b / b / / p.^ ^ p.b 2 1 H.g.v.|.|. X{.N.c.b z k v j m.E.}.}.}.|.E.V.z.p., ^ l.g.s.p.p.n.b.m.c.l.f.a.b.b.a.p b.N.",
"b.j : i i i u p.j v z z j ^ j p i i , i G.g.v.|..X.X|.D.v.b k b v p v.E.|..X.XOX`.b.g._ b l.g.g.d.^ p.g.v.v.v.g.f.j.v.c.f.s.B.B.",
"G.) 3 i u q u ) u l l p p ~ j u u q , p Y.l.v.l.v.V.z.k.A.) j z j f m.G.l.m.N.v.z.B.k.a.^ d.d.h.h.p.p.p.f.l.l.j.j.k.v.l.d._ Z.V.",
"B.E._._._.{.{.{.{._.[.[._._.[._.[.[././.Y.l.G.T.R.^.).).}.XX}.`.{.{.`./.G.G.G.Z.Y.Y.k.Z.`.{.}.{.{.`./.~.(.}.}.}.}.}. X{._._.E.B.",
"N././.{.{.[.D.{.[.{.{.{.[.{._.^.{.{.}.{.Z.k.Y.'. X}..XXX.X|.`.G..X{.{.{.{.{.{.{.{.Y.j.U.[.[.[.'.].].Q.(.].L.].{._.!.'./.'./.v.Z.",
"l.d.d.g.f.g._ p.a.d.g.g.h._ _ d.d.d.g.f.d.d._ b ~ ) d._ ) v p _ j.f.g.g.f.d.g.k.j.d.d.d.d.j.j.j.h.l.c.g.l.l.g.f.g.d.d.d._ _ ~ b.",
"u , < < , , 1 < < 7 7 7 3 3 2 7 1 2 < < , , , 3 y d u u 3 < 1 7 , 1 < 2 1 1 3 y y 8 9 7 3 3 8 7 5 i y u i u i 4 3 9 8 9 2 2 , l ",
"2 s N ] j j j C ' k z z ] B U j j J B F > O p C Z ( ) ) | N r j j S N D z j F N } j - f [ A Q d z D A W m p.W A K b v U N H u , ",
"2 ;.6.5.[ g A 5.5.A h [ 5.6.;.x D 5.7.<., + ' 5.5.y.M } 5.6.&.j F 3.5.>.Q k <.6.5.D & J 5.6.-.b T 3.5.4.( / ,.6.5.` m ;.6.5.K < ",
"1 1.9.6.A g =.7.7.1.g A 6.9.,.v K 6.9.9.t X 0.7.9.2.m  .6.9.3.k K 6.9.6.D s 3.9.7.K * N 6.9.7.( } 6.9.6.W ! 4.9.6.@.~ 4.9.7.0.< ",
"1 1.9.6...g =.7.7.=.n y.6.9.,.j L 6.9.8.6 # A 6.9.-.n ..6.9.3.j L 6.9.7.Y k 3.7.6.L o B 6.9.3.Q P 6.9.7.` Q 4.9.6.@.~ ,.9.6. .< ",
", 1.9.6...g =.7.7.=.n r.6.9.,.v L 6.9.9.e # 0.9.7.-.h ..6.7.3.Q L 6.9.6.D s 4.9.7.G o Z 7.9.3.k P 6.9.6.R s 4.9.6.L j >.9.6.A & ",
"1 =.9.6. .g =.7.7.=.n r.6.9.,.m P 6.9.9.e # 0.6.7.-.g  .6.9.3.k L 6.9.3.D s 4.9.7.G o B 6.9.4.Q P 6.9.7.R s 4.9.6.L j >.9.6.A = ",
", 1.9.6...g =.7.7.=.g  .6.9.,.) L 7.9.9.w X A 7.7.-.g  .6.9.3.Q L 6.9.7.D s 4.9.7.G o B 6.9.4.k L 6.9.7.D s 4.9.6.L j >.9.6.Z = ",
"1 2.9.6. .g &.6.7.=.x r.6.7.,.^ } 6.7.9.6 X %.7.9.=.g A 6.9.3.k K 6.9.6.D s 3.9.6.G o N 7.7.3.k L 6.9.6.D r 3.9.6.J p >.9.6.A < ",
"2 -.6.6.' g %.6.6.%.n o.5.6.2.m E 6.6.8.w # ' 5.6.*.g [ 5.6.,.k D 5.7.3.U j 4.6.6.S o H 5.6.:.z D 6.7.3.Q a 3.7.6.S y &.6.6.' & ",
"> W w.r.~ v ! y.w.Q b ) i.u.$.p.p.O.e.#.u $ k q.u.! v ~ X.*.E z z { *.} z j P w.+.u @ l t.w.E b b | *.| b z P *.o.j d D *.t.a - ",
"1 y y y u q y y y q q d f f j j l g f f , $ y y y q q y d d y q q y y y q q y y y 7 $ 2 d y y y q y d d q q y y y 8 9 9 4 3 8 ; "
};
