/* XPM */
static char *_3026aa52c394004d46bd28071b8c006dHaGaRkbyu0mpOQh[] = {
/* columns rows colors chars-per-pixel */
"98 138 58 1 ",
"  c None",
". c black",
"X c #040404",
"o c #090C0C",
"O c #1F180A",
"+ c #101017",
"@ c #18181F",
"# c gray11",
"$ c #25150A",
"% c #2D190B",
"& c #2B280D",
"* c #3D290B",
"= c #382110",
"- c #382113",
"; c #1D2027",
": c #202020",
"> c #25282F",
", c #282828",
"< c #2C2C2C",
"1 c #2D303B",
"2 c #343434",
"3 c gray22",
"4 c #432614",
"5 c #4B2E19",
"6 c #483512",
"7 c #56321D",
"8 c #613A22",
"9 c #584117",
"0 c #6D4226",
"q c #674D20",
"w c #735928",
"e c #000249",
"r c #353843",
"t c #3A404B",
"y c gray25",
"u c #444444",
"i c #4C4C4C",
"p c #494C5E",
"a c #505050",
"s c #585858",
"d c gray36",
"f c #4E5466",
"g c #565C6E",
"h c #5D6476",
"j c #646464",
"k c #686868",
"l c gray44",
"z c #7C7C7C",
"x c #826533",
"c c #8F753F",
"v c #9F854E",
"b c #848484",
"n c gray55",
"m c #909090",
"M c #989898",
"N c #A0A0A0",
"B c gray66",
"V c #ACACAC",
/* pixels */
"                                                                                                  ",
"                                                                                                  ",
"                                                                                                  ",
"                                                                                                  ",
"                                                                                                  ",
"                                                                                                  ",
"                                                                                                  ",
"                                                                                                  ",
"                                                                                                  ",
"                                                                                                  ",
"                                                                                                  ",
"                                                                                                  ",
"                                                                                                  ",
"                                                                                                  ",
"                                                                                                  ",
"                                                                                                  ",
"                                                                                                  ",
"                                                                                                  ",
"                                                                                                  ",
"                                                                                                  ",
"                                                                                                  ",
"                                                                                                  ",
"                                                                                                  ",
"                                                                                                  ",
"                                                                                                  ",
"                                                                                                  ",
"                                                                                                  ",
"                                                                                                  ",
"                                                                                                  ",
"                                                                                                  ",
"                                                                                                  ",
"                                                                                                  ",
"                                                                                                  ",
"                                                                                                  ",
"                                                                                                  ",
"                                                                                                  ",
"                                                                                                  ",
"                                                                                                  ",
"                                                                                                  ",
"                                                                                                  ",
"                                                                                                  ",
"                                                                                                  ",
"                                                                                                  ",
"                                                                                                  ",
"                           ::,,::                                                                 ",
"                         :,,,,,,,,:                                                               ",
"                       ,s2332;,23,<::                                                             ",
"                      <2ysyyyyyyy322,:                                                            ",
"                     :s3,yy22222<,,:<,                                                            ",
"                     :<sy<yy5*69q966*-#                                                           ",
"                    <223<999q99**66***-#                                                          ",
"                    ,239*969696q9q666**6<                                                         ",
"                    ,2*96***qq99*9ww9674*:                                                        ",
"                    :6969*9q96qxxwq666**63#                                                       ",
"                    *9uui9*6xw999qccwxw9**3                                                       ",
"                    9y<uu*qq9*qxxxwwqq666**2:                                                     ",
"                   +y<22us9*9vw99qwccxxxwq22<                                                     ",
"                   #y<<2uu*qq66wccwxw99666663,                                                    ",
"                   #<<<2uus9*9cvx99wcvcxxw96*2:                                                   ",
"                   @,<<22uu*qxx6wcxwxww96666*<<@                                                  ",
"                   +,<<<2uus699cvxq9qwvcwwww9*:,                                                  ",
"                  e+,,<<22ui*qxwwccxwq9999666*&#:                                                 ",
"                  ++,,<<22u2@*99vcq9qqxcccxxxw0#*#                                                ",
"                  +@,,,<<2<@%69q66xvxcxqq99690qq-$                                                ",
"                  +@,,,<<<@%-9**qcvc9q6qxcwwqq6**+                                                ",
"                  +@,,,,<,@%9**69x69xxvxwwq9665<3*#                                               ",
"                  +@:,,,:+O@*6w**9wcvciau32<<<<2yi:                                               ",
"                  +@:,,,:+@*9q**69wi2,:@@::,as::,::#                                              ",
"          ,:      +@::,:+O@8q6*w6u<#@:,<33sauu2<:#@@                                              ",
"         ,2ua2,   +@::,:+$*0*69q2##<22222<2uuu32<<::@#                                            ",
"         22,,::2a2,,::::+@57*q23<2i2222222:3uuy2<<,:,+#                                           ",
"        :<2<<<<,,::2u2,#+@5*90,2uiu<<22222<:yuu32<,::,3uu2                                        ",
"        <:<<<<<<<<,,,::2y,2*0<,<yuu3,222222<,uuy2<,::@<332<                                       ",
"       :2:<<,::,<<<<<<<,,::<2,,<2uuy:2222222,<uu3<,,::@<332<                                      ",
"       <2:<2,,,,,:::,<<<<<<,::,<<3uu,22222222,<uu2,,:::,<33<                                      ",
"      :2<,,2,;+:,,,,,:::,<<<<<:,<2yu<<2222222<:3u3<,,::@,<32<                                     ",
"      <2<,,2<,,,;++:,,,,,:::,,:,<<3u3,22222222<:yu<,,:::@,<3<                                     ",
"      22<,:2<<<<<,,,:++:,,,,,:::,:<yu:22222222<<,y3<,,:::@,<2<                                    ",
"      22<,,,2<<<<<<<,,,;++::,,,#,::3u,22222222<<<,y<,,:::::,<<                                    ",
"      <2<,:,2;<<<<<<<<<,,,,:++::#,:<y2<222222<<<<,<2<,,:::@:,<<                                   ",
"      @2,,,,<:;;;,<<<<<<<,,,,,++#,::2y,222<<<<<<::::<<,::::@:,<:                                  ",
"       2<,,,:+@@;;;;,,<<<<<<,,,,:#:::y,2<<<<:<2222<,<<<<<,::@,,<+                                 ",
"       <<,,:+oo+@@@@;;;;,,<<<<<,:#:::2<<<:<3333322@++@,<<<,;@:,,,                                 ",
"       ,<,,@ooooooo+@@@@;;;;,,,,,:#:::,::<33333221@++o@>>;;@@@:,,+                                ",
"       #<,:+ooooooooooo@@@@;;;;;;,#:::::<23333222<,,#o@>,;#@++@:,:                                ",
"       @<,#oooooooooooooooo@@@@;;;;#::::<2233222<>,,+o#;;;@++oo::,                                ",
"        <<@oooooooooooooooooooo@@@@#:::+,<22221<>>,,,,<<,@@++ooo::#                               ",
"        ,:#@@+oooooooooooooooooooo++ooo#,<2222<<>>;:2yaa<@+++oooo@o                               ",
"        @+oo++@@++ooooooooooooooo++ooo#,,<221<<>>;;:23yy3@++ooXooooo                              ",
"         ooooooo+@@@+ooooooooooo++ooooo#,<<<<<>>,;;:233y3:++ooX++oooX                             ",
"            Xooooooo+@@++ooooooo+ooo@#+@,<<<<>>>;;@,<333y,++ooXo+oooo                             ",
"               XXoooooo++@@+ooooo@o+,y<:,,<<>>>;;;@<<233y2+oooXXoooo:                             ",
"                   Xooooooo+@@@++#oo+@#:,,<<>>,;;@@<<23333+oooXX++ooy<                            ",
"                      ooooooooo#<+ooooo:,,,,,,;;;@@,<<333y:oooXX#@oo2y                            ",
"                      oooooooooo#o+<uy<:,,,,,;;;@@@,<<3333,oooXX@#+o#                             ",
"                       oooo+#<+::o+<<,:@,,,,:;;;@@@,<<2333<oooXXo:+o##                            ",
"                       ooooo+3:oooooooo@,:,::;:@@@+,<<23332oooXX+:+o@:                            ",
"                        ooooo:<oooo+@:<@,:::;:@@@++:<222222:@oXX#:oo+o                            ",
"                        ooooo+<oooo<y2<@::::#@@@+++:<233yyyyy+XX@:oo+o                            ",
"                         ooooo,#ooo:,@+@:::#@@@++++#222223333,XX@+o+oX                            ",
"                          ooo+##o+oooo+@:###+++++oo#<2>>>>>>>1+X+oo+o                             ",
"                           Xo+++uuooo+,@:#@++++oooo#<@@+++@@@;+Xoo+XX                             ",
"                              oX2i,oo@:@:@++ooooooo#<+@ooooooooXX+X;;                             ",
"                               X+<<+o+#:#++oooooooo#<+@ooooooooXo++++@+                           ",
"                                  :<+o+:#+oXXoooooo#,@+ooooooooX++@@2;@+                          ",
"                                   :oo+:+ooXooooooo:,,+oooooXXXXo+@yy2@@++                        ",
"                                   ooo@:+oXXooooooo:@:++oooXXXoo+@;uiu>@++                        ",
"                                   o#++#+oXXooooooo:+oooooXXXXo+@;ydkdt>@@+                       ",
"                                   X@,#@+oXXooooooo@oooooXXX++@@,2yddkdy;@@+                      ",
"                            @@@@@@@@+::@+ooXXoooooo+oooooXX+@,;22yyuidi3<;;>oX                    ",
"                           +@;>222<@+@@+++ooooooooo++++XXX+@@>233323yuuy2>;;@o                    ",
"                          ;@;23yy33,;;;@++X+++Xoooo+ooXXo+@;;;23yy222yyu3>@;>;+                   ",
"                         @>>>2ytyyy2>;;@@@@@@+ooooooXo+o+@;;;;>222>>>2yy3;@@>;@+X                 ",
"                        +;>>><3yyyyy2>;@;;;;@+ooo+oX+++++@;>>;2>>>>>><2y3>@@,,;++                 ",
"                    @@;>;;>;;>>223yyyy21r322,@+oX..X++++@@;>>;;;;>>>>><23y;@;>;@++                ",
"                   @>22<;;;@@@@;;>3yuiipfaiuy>;+XX..Xo+@@@;;;;;;;;;;;>><2y2@+;>;++                ",
"                  @;>32>;@@;>@@+@>1yuidghhjspt1;+oXX..Xo+@@;;;;;;;;;@@;>222@@#;;@++               ",
"                  ;;,2>;@o+@;@+o+;>tuidjhkjdfpt<;@+oX..X+@@@@;;;;;@@@@;;><<,@@;>;++               ",
"                  +@::@@+oXo+Xo++>>2tiddjkjjdfiy2>@+oXX.Xo@@@@;;@@@@@@@;;>,:++;>;+o+              ",
"                  +;;+@@@+X+@@oo+@>2yuidddddsaiuy2>@+oXX..X@;;;;@@@@@@@@;;;@++@>>+ooX             ",
"                   @<<,,;;+@;@+o++>>2yuiddiiiiiiit2>@@@+oXX+;;;;@@@@@++@;;;@+o+;;+ooX             ",
"                    ;112<>>#>;++++@><2ytuyyyuuyuiit2>;;@@+oX@;>@+++++++@@;;@+o+#@+o@o             ",
"                      ;111>@+@++++@;>12222233yyyuiit2>;;;;@+X@;;@++++++@@@;@+oo@+++,y             ",
"                             ++@o@@@;>>>>>>>2233ytuiu2>>>>;;;;;>>@+++++@@@@@+oo+++oon             ",
"                              X>+<;@@;>>>;;;>><23yyiiy2<>>;;>>122>@+++@@@@@@++oXooo2d             ",
"                               ;@+;@@@;;;;;;;;>>23yuuuy2>>;;;>>111;@@@@@@@@+@+XXoo+zd             ",
"                               >>+1;@+@@;;;;;;>>>23yuuuy2>;@+@;>>>>;@@@@@@@@@+XXX++mdj            ",
"                               ;2+;;@++@@;;;;;>>>>>3uuuy3<>>+@@;;;;;@@@@@@@@++oXX;jBmd            ",
"                                2++1@++@@@;;;;;>>>>23yyyy2;>@@@@@@@@@@@@@@@@@+XXoukMbb            ",
"                                >;+<@++@@@@;;;;;>>>><23yuy1@@@@@@@@@@@@@@@@@++oXojnddm            ",
"                                >>+@#@++@@@@;;;;;>>>>><2yit>@+@@@@@@@@@@@@@@++oX+dBddmd           ",
"                                ;>;+>o++@@@@;;;;;;>>>>;>2yyr>@@@@@@@@@@@@@@@++oodzMddmz           ",
"                                ;>>++@@++@@@@;>>;;;>>>;;>2332,@@>@@@@@@@@@@@++XodNkkdmm           ",
"                                 >>@+@o+++@@@@>>>;;;>>;;;>232<;@;>@@@@@@@@@@+++olV3ddmm           ",
"                                 @>1+@++++@@@@>>>>;;>>>;;;,22>>:@;;@@@@@@@@@+o+@MB3kbmmd          ",
"                                 @><@+@o+++@@@#>>>>;;>>>;;;,,,>,;;;;;@@@@@@@+o+2MBukMmmd          ",
"                                  >1;+@+++++++@>>>>;;>>>>;;;,,@,,@;;>@@@@@@@+++kNNykMMnd          ",
"                                  ;><@+@@++++++>>>>>@>>>>>@@;>,@,+>>>;@;;@@@++@kBBykMMkdj         "
};
