/* XPM */
static char *c0c6ebc05b374673c3cadbf462f3346bfNhDNgzNQFgbArJW[] = {
/* columns rows colors chars-per-pixel */
"98 138 58 1 ",
"  c #0080FF",
". c #202020",
"X c #282828",
"o c #585858",
"O c #343434",
"+ c gray22",
"@ c #1C2028",
"# c #2C2C2C",
"$ c gray25",
"% c #502C14",
"& c #402804",
"* c #4C3408",
"= c #5C400C",
"- c #6C4C14",
"; c #3C2010",
": c gray11",
"> c #78581C",
", c #5C3018",
"< c #482410",
"1 c #886428",
"2 c #444444",
"3 c #4C4C4C",
"4 c #947434",
"5 c #101018",
"6 c #A48444",
"7 c #181820",
"8 c #00004C",
"9 c #2C2808",
"0 c #744020",
"q c #301808",
"w c #3C200C",
"e c #281408",
"r c #201808",
"t c #505050",
"y c #68381C",
"u c #080C0C",
"i c #2C303C",
"p c #242830",
"a c #040404",
"s c gray36",
"d c #686868",
"f c #38404C",
"g c #343844",
"h c black",
"j c #484C60",
"k c #4C5468",
"l c #545C70",
"z c #5C6478",
"x c #646464",
"c c gray55",
"v c #7C7C7C",
"b c #909090",
"n c gray66",
"m c #989898",
"M c #848484",
"N c #A0A0A0",
"B c gray44",
"V c #ACACAC",
/* pixels */
"                                                                                                  ",
"                                                                                                  ",
"                                                                                                  ",
"                                                                                                  ",
"                                                                                                  ",
"                                                                                                  ",
"                                                                                                  ",
"                                                                                                  ",
"                                                                                                  ",
"                                                                                                  ",
"                                                                                                  ",
"                                                                                                  ",
"                                                                                                  ",
"                                                                                                  ",
"                                                                                                  ",
"                                                                                                  ",
"                                                                                                  ",
"                                                                                                  ",
"                                                                                                  ",
"                                                                                                  ",
"                                                                                                  ",
"                                                                                                  ",
"                                                                                                  ",
"                                                                                                  ",
"                                                                                                  ",
"                                                                                                  ",
"                                                                                                  ",
"                                                                                                  ",
"                                                                                                  ",
"                                                                                                  ",
"                                                                                                  ",
"                                                                                                  ",
"                                                                                                  ",
"                                                                                                  ",
"                                                                                                  ",
"                                                                                                  ",
"                                                                                                  ",
"                                                                                                  ",
"                                                                                                  ",
"                                                                                                  ",
"                                                                                                  ",
"                                                                                                  ",
"                                                                                                  ",
"                                                                                                  ",
"                           ..XX..                                                                 ",
"                         .XXXXXXXX.                                                               ",
"                       XoO++O@XO+X#..                                                             ",
"                      #O$o$$$$$$$+OOX.                                                            ",
"                     .o+X$$OOOOO#XX.#X                                                            ",
"                     .#o$#$$%&*=-=**&;:                                                           ",
"                    #OO+#===-==&&**&&&;:                                                          ",
"                    XO+=&=*=*=*-=-***&&*#                                                         ",
"                    XO&=*&&&--==&=>>=*,<&.                                                        ",
"                    .*=*=&=-=*-11>-***&&*+:                                                       ",
"                    &=223=&*1>===-44>1>=&&+                                                       ",
"                    =$#22&--=&-111>>--***&&O.                                                     ",
"                   5$#OO2o=&=6>==->44111>-OO#                                                     ",
"                   :$##O22&--**>44>1>==*****+X                                                    ",
"                   :###O22o=&=461==>46411>=*&O.                                                   ",
"                   7X##OO22&-11*>41>1>>=****&##7                                                  ",
"                   5X###O22o*==461-=->64>>>>=&.X                                                  ",
"                  85XX##OO23&-1>>441>-====***&9:.                                                 ",
"                  55XX##OO2O7&==64-=--1444111>0:&:                                                ",
"                  57XXX##O#7q*=-**16141--==*=0--we                                                ",
"                  57XXX###7q;=&&-464=-*-14>>--*&&5                                                ",
"                  57XXXX#X7q=&&*=1*=1161>>-=**%#+&:                                               ",
"                  57.XXX.5r7&*>&&=>4643t2+O####O$3.                                               ",
"                  57.XXX.57&=-&&*=>3OX.77..Xto..X..:                                              ",
"          X.      57..X.5r7y-*&>*2#:7.X#++ot22O#.:77                                              ",
"         XO2tOX   57..X.5e&0&*=-O::#OOOOO#O222+O##..7:                                            ",
"         OOXX..OtOXX....57%,&-O+#O3OOOOOOO.+22$O##X.X5:                                           ",
"        .#O####XX..O2OX:57%&=0XO232##OOOOO#.$22+O#X..X+22O                                        ",
"        #.########XXX..O$XO&0#X#$22+XOOOOOO#X22$O#X..7#++O#                                       ",
"       .O.##X..X#######XX..#OXX#O22$.OOOOOOOX#22+#XX..7#++O#                                      ",
"       #O.#OXXXXX...X######X..X##+22XOOOOOOOOX#22OXX...X#++#                                      ",
"      .O#XXOX@5.XXXXX...X#####.X#O$2##OOOOOOO#.+2+#XX..7X#+O#                                     ",
"      #O#XXO#XXX@55.XXXXX...XX.X##+2+XOOOOOOOO#.$2#XX...7X#+#                                     ",
"      OO#X.O#####XXX.55.XXXXX...X.#$2.OOOOOOOO##X$+#XX...7X#O#                                    ",
"      OO#XXXO#######XXX@55..XXX:X..+2XOOOOOOOO###X$#XX.....X##                                    ",
"      #O#X.XO@#########XXXX.55..:X.#$O#OOOOOO####X#O#XX...7.X##                                   ",
"      7OXXXX#.@@@X#######XXXXX55:X..O$XOOO######....##X....7.X#.                                  ",
"       O#XXX.577@@@@XX######XXXX.:...$XO####.#OOOO#X#####X..7XX#5                                 ",
"       ##XX.5uu57777@@@@XX#####X.:...O###.#+++++OO7557X###X@7.XXX                                 ",
"       X#XX7uuuuuuu57777@@@@XXXXX.:...X..#+++++OOi755u7pp@@777.XX5                                ",
"       :#X.5uuuuuuuuuuu7777@@@@@@X:.....#O++++OOO#XX:u7pX@:7557.X.                                ",
"       7#X:uuuuuuuuuuuuuuuu7777@@@@:....#OO++OOO#pXX5u:@@@755uu..X                                ",
"        ##7uuuuuuuuuuuuuuuuuuuu7777:...5X#OOOOi#ppXXXX##X7755uuu..:                               ",
"        X.:775uuuuuuuuuuuuuuuuuuuu55uuu:X#OOOO##pp@.O$tt#7555uuuu7u                               ",
"        75uu557755uuuuuuuuuuuuuuu55uuu:XX#OOi##pp@@.O+$$+755uuauuuuu                              ",
"         uuuuuuu57775uuuuuuuuuuu55uuuuu:X#####ppX@@.O++$+.55uua55uuua                             ",
"            auuuuuuu57755uuuuuuu5uuu7:57X####ppp@@7X#+++$X55uuau5uuuu                             ",
"               aauuuuuu55775uuuuu7u5X$#.XX##ppp@@@7##O++$O5uuuaauuuu.                             ",
"                   auuuuuuu577755:uu57:.XX##ppX@@77##O++++5uuuaa55uu$#                            ",
"                      uuuuuuuuu:#5uuuuu.XXXXXX@@@77X##+++$.uuuaa:7uuO$                            ",
"                      uuuuuuuuuu:u5#2$#.XXXXX@@@777X##++++Xuuuaa7:5u:                             ",
"                       uuuu5:#5..u5##X.7XXXX.@@@777X##O+++#uuuaau.5u::                            ",
"                       uuuuu5+.uuuuuuuu7X.X..@.7775X##O+++Ouuuaa5.5u7.                            ",
"                        uuuuu.#uuuu57.#7X...@.77755.#OOOOOO.7uaa:.uu5u                            ",
"                        uuuuu5#uuuu#$O#7....:777555.#O++$$$$$5aa7.uu5u                            ",
"                         uuuuuX:uuu.X757...:7775555:OOOOO++++Xaa75u5ua                            ",
"                          uuu5::u5uuuu57.:::55555uu:#Opppppppi5a5uu5u                             ",
"                           au55522uuu5X7.:75555uuuu:#77555777@5auu5aa                             ",
"                              uaO3Xuu7.7.755uuuuuuu:#57uuuuuuuuaa5a@@                             ",
"                               a5##5u5:.:55uuuuuuuu:#57uuuuuuuuau555575                           ",
"                                  .#5u5.:5uaauuuuuu:X75uuuuuuuua5577O@75                          ",
"                                   .uu5.5uuauuuuuuu.XX5uuuuuaaaau57$$O7755                        ",
"                                   uuu7.5uaauuuuuuu.7.55uuuaaauu57@232p755                        ",
"                                   u:55:5uaauuuuuuu.5uuuuuaaaau57@$sdsfp775                       ",
"                                   a7X:75uaauuuuuuu7uuuuuaaa5577XO$ssds$@775                      ",
"                            777777775..75uuaauuuuuu5uuuuuaa57X@OO$$23s3+#@@pua                    ",
"                           57@pOOO#7577555uuuuuuuuu5555aaa577pO+++O+$22$Op@@7u                    ",
"                          @7@O+$$++X@@@755a555auuuu5uuaau57@@@O+$$OOO$$2+p7@p@5                   ",
"                         7pppO$f$$$Op@@7777775uuuuuuau5u57@@@@pOOOpppO$$+@77p@75a                 ",
"                        5@ppp#+$$$$$Op@7@@@@75uuu5ua555557@pp@Opppppp#O$+p77XX@55                 ",
"                    77@p@@p@@ppOO+$$$$Oig+OOX75uahha555577@pp@@@@ppppp#O+$@7@p@755                ",
"                   7pOO#@@@7777@@p+$233jkt32$p@5aahhau5777@@@@@@@@@@@pp#O$O75@p@55                ",
"                  7@p+Op@77@p7757pi$23slzzxojfi@5uaahhau577@@@@@@@@@77@pOOO77:@@755               ",
"                  @@XOp@7u57@75u5@pf23sxzdxskjf#@75uahha57777@@@@@7777@@p##X77@p@55               ",
"                  57..775uau5au55ppOf3ssxdxxsk3$Op75uaahau7777@@7777777@@pX.55@p@5u5              ",
"                  5@@57775a577uu57pO$23sssssot32$Op75uaahha7@@@@77777777@@@7557pp5uua             ",
"                   7##XX@@57@75u55ppO$23ss3333333fOp7775uaa5@@@@77777557@@@75u5@@5uua             ",
"                    @iiO#pp:p@55557p#O$f2$$$22$233fOp@@775ua7@p7555555577@@75u5:75u7u             ",
"                      @iiip75755557@piOOOOO++$$$233fOp@@@@75a7@@7555555777@75uu7555X$             ",
"                             557u777@pppppppOO++$f232Opppp@@@@@pp755555777775uu555uuc             ",
"                              ap5#@77@ppp@@@pp#O+$$33$O#pp@@ppiOOp755577777755uauuuOs             ",
"                               @75@777@@@@@@@@ppO+$222$Opp@@@ppiii@77777777575aauu5vs             ",
"                               pp5i@7577@@@@@@pppO+$222$Op@757@pppp@7777777775aaa55bsx            ",
"                               @O5@@75577@@@@@ppppp+222$+#pp577@@@@@7777777755uaa@xnbs            ",
"                                O55i755777@@@@@ppppO+$$$$O@p777777777777777775aau2dmMM            ",
"                                p@5#7557777@@@@@pppp#O+$2$i7777777777777777755uauxcssb            ",
"                                pp57:7557777@@@@@ppppp#O$3fp757777777777777755ua5snssbs           ",
"                                @p@5pu557777@@@@@@pppp@pO$$gp77777777777777755uusvmssbv           ",
"                                @pp5577557777@pp@@@ppp@@pO++OX77p7777777777755ausNddsbb           ",
"                                 pp757u5557777ppp@@@pp@@@pO+O#@7@p7777777777555uBV+ssbb           ",
"                                 7pi5755557777pppp@@ppp@@@XOOpp.7@@7777777775u57mn+dMbbs          ",
"                                 7p#757u555777:pppp@@ppp@@@XXXpX@@@@@77777775u5Omn2dmbbs          ",
"                                  pi@5755555557pppp@@pppp@@@XX7XX7@@p7777777555dNN$dmmcs          ",
"                                  @p#7577555555ppppp7ppppp77@pX7X5ppp@7@@777557dnn$dmmdsx         "
};
