/* XPM */
static char *_dd61ba543734926cef1555b64a70f042K5jqUAWMeIVuuUq[] = {
/* columns rows colors chars-per-pixel */
"20 20 2 1 ",
"  c #218845",
". c #96F97B",
/* pixels */
"                    ",
" .................. ",
" .................. ",
" .................. ",
" .................. ",
" .................. ",
" .................. ",
" .................. ",
" .................. ",
" .................. ",
" .................. ",
" .................. ",
" .................. ",
" .................. ",
" .................. ",
" .................. ",
" .................. ",
" .................. ",
" .................. ",
"                    "
};
