/* XPM */
static char *a53254a663eb4cdbee1e9640731c2bf4b66Gn70O2IPLq4Gi[] = {
/* columns rows colors chars-per-pixel */
"20 20 2 1 ",
"  c None",
". c #218845",
/* pixels */
"....................",
".                  .",
".                  .",
".                  .",
".                  .",
".                  .",
".                  .",
".                  .",
".                  .",
".                  .",
".                  .",
".                  .",
".                  .",
".                  .",
".                  .",
".                  .",
".                  .",
".                  .",
".                  .",
"...................."
};
